<svg width="88" height="36" viewBox="0 0 105 39" fill="none" xmlns="http://www.w3.org/2000/svg">
<path d="M46.2943 19.9956H51.6306V27.2254C51.0712 27.5266 50.397 27.7848 49.608 28C48.819 28.2008 47.9727 28.3012 47.069 28.3012C44.7881 28.3012 43.0739 27.5697 41.9263 26.1065C40.7931 24.629 40.2265 22.843 40.2265 20.7487C40.2265 18.5252 40.872 16.6891 42.163 15.2403C43.4541 13.7914 45.2041 13.067 47.4132 13.067C47.8436 13.067 48.4532 13.1388 49.2422 13.2822C50.0455 13.4257 50.7699 13.6695 51.4154 14.0138L50.5332 16.0149C49.9021 15.8284 49.3857 15.685 48.984 15.5846C48.5967 15.4698 48.0874 15.4124 47.4563 15.4124C46.1652 15.4124 45.1181 15.8571 44.3148 16.7465C43.5258 17.6215 43.1313 18.9484 43.1313 20.7272C43.1313 22.3338 43.4541 23.6105 44.0996 24.5572C44.7594 25.4897 45.7277 25.9559 47.0044 25.9559C47.4778 25.9559 47.8866 25.9343 48.2309 25.8913C48.5752 25.8339 48.8764 25.7766 49.1346 25.7192V22.1473H46.0577L46.2943 19.9956ZM56.5419 24.88C56.5419 25.1812 56.6639 25.4538 56.9077 25.6977C57.1516 25.9272 57.4743 26.0419 57.876 26.0419C58.2633 26.0419 58.6506 25.9559 59.0379 25.7837C59.4396 25.6116 59.8197 25.3534 60.1783 25.0091V23.4168H58.0697C57.5819 23.4168 57.2018 23.5674 56.9292 23.8687C56.671 24.1699 56.5419 24.507 56.5419 24.88ZM57.919 28.2582C56.6423 28.2582 55.6956 27.9498 55.0788 27.333C54.4619 26.7018 54.1535 25.8841 54.1535 24.88C54.1535 23.8041 54.5193 22.9793 55.2509 22.4055C55.9825 21.8317 56.9364 21.5448 58.1127 21.5448H60.1568C60.1425 21.0141 59.9847 20.6052 59.6834 20.3183C59.3966 20.0171 58.9949 19.8665 58.4785 19.8665C57.9908 19.8665 57.46 19.9382 56.8862 20.0817C56.3124 20.2108 55.8319 20.3686 55.4446 20.555L54.6914 18.2312C55.0931 17.9586 55.7028 17.7363 56.5204 17.5641C57.3524 17.3777 57.9908 17.2844 58.4354 17.2844C59.6834 17.2844 60.7521 17.6502 61.6415 18.3818C62.5309 19.099 62.9756 20.0171 62.9756 21.136V28H61.5339L60.8454 27.1178C60.4581 27.419 59.999 27.6844 59.4683 27.9139C58.9519 28.1434 58.4354 28.2582 57.919 28.2582ZM72.0048 27.7848C71.7752 27.9713 71.4453 28.1219 71.015 28.2367C70.599 28.3658 70.226 28.4303 69.8961 28.4303C68.605 28.4303 67.5865 28.1076 66.8406 27.4621C66.109 26.8022 65.7432 25.8698 65.7432 24.6648V19.7374H64.3446V17.5857H65.7432V15.1112L68.519 14.6163V17.5857H70.4125L71.2732 19.7374H68.519V24.1699C68.519 24.715 68.6481 25.1669 68.9063 25.5255C69.1645 25.8698 69.5446 26.0419 70.0467 26.0419C70.2332 26.0419 70.4197 26.0204 70.6061 25.9774C70.7926 25.9343 70.9863 25.8626 71.1871 25.7622L72.0048 27.7848ZM76.4819 18.2527C76.9409 17.8941 77.4645 17.6215 78.0526 17.435C78.6551 17.2486 79.193 17.1553 79.6664 17.1553C81.0865 17.1553 82.0907 17.5713 82.6788 18.4033C83.2813 19.2353 83.5825 20.2538 83.5825 21.4588V28H80.7853V21.5879C80.7853 20.928 80.6275 20.4259 80.3119 20.0817C79.9963 19.723 79.5301 19.5437 78.9133 19.5437C78.5117 19.5437 78.0957 19.6513 77.6653 19.8665C77.235 20.0673 76.8405 20.304 76.4819 20.5766V28H73.7061V13.0455L76.4819 12.8088V18.2527ZM91.5431 28.2582C89.7356 28.2582 88.3083 27.7633 87.2612 26.7735C86.2283 25.7837 85.7119 24.4568 85.7119 22.7928C85.7119 21.1288 86.1781 19.7948 87.1105 18.7906C88.0573 17.7865 89.3412 17.2844 90.9621 17.2844C92.5974 17.2844 93.7952 17.8295 94.5555 18.9197C95.3301 19.9956 95.7174 21.2723 95.7174 22.7498V23.6105H88.6813C88.8104 24.299 89.126 24.8513 89.6281 25.2673C90.1301 25.669 90.79 25.8698 91.6076 25.8698C92.081 25.8698 92.5042 25.8124 92.8772 25.6977C93.2645 25.5686 93.7092 25.3892 94.2112 25.1597L95.0289 27.1823C94.5412 27.5553 93.9458 27.8279 93.2429 28C92.5544 28.1721 91.9878 28.2582 91.5431 28.2582ZM93.0708 21.7385C92.9274 21.0356 92.6692 20.5192 92.2962 20.1892C91.9232 19.845 91.457 19.6728 90.8976 19.6728C90.3238 19.6728 89.8432 19.8521 89.4559 20.2108C89.0686 20.555 88.8176 21.0643 88.7028 21.7385H93.0708ZM103.591 17.5641L104.151 19.8019C103.677 19.8019 103.125 19.9382 102.494 20.2108C101.877 20.4833 101.267 20.885 100.665 21.4157V28H97.8675V17.5641H99.3306L100.256 19.0919C100.686 18.7189 101.21 18.3746 101.827 18.059C102.443 17.7291 103.032 17.5641 103.591 17.5641Z" fill="white"/>
<path d="M5.23852 17.2516L5.22042 17.2422C4.77467 17.0067 4.88802 16.8282 5.00393 16.4023C6.29106 11.672 9.88011 7.9344 14.6502 6.60496C21.8777 4.59053 29.2625 8.93384 31.2549 16.1306C32.1152 19.2382 31.7895 22.8082 30.3895 25.702C26.9667 32.7772 18.3694 35.495 11.5205 31.596C7.13051 29.0968 4.66496 24.3323 4.70279 19.3466C4.70572 18.9611 4.6348 18.2842 5.07408 18.0999C5.22418 18.1208 5.50815 18.1533 5.59345 18.2973C5.60779 18.3215 5.591 19.9373 5.56604 20.3178C5.63009 20.6707 5.64736 21.0315 5.68661 21.3878C6.35897 27.4883 11.9297 32.6464 18.1071 32.545C22.229 32.6145 26.3303 30.4326 28.6649 27.0433C32.9596 20.8082 30.9511 12.4162 24.4864 8.67241C22.7008 7.6383 20.2886 6.90819 18.2162 7.00054C17.3868 6.94362 16.2649 7.0966 15.4439 7.2786C11.1633 8.22761 7.01188 11.9649 5.95139 16.2718C5.83701 16.7363 5.83275 17.1663 5.23852 17.2516Z" fill="#163166"/>
<path d="M5.56641 20.3172L5.59026 20.2446C5.71783 20.1757 5.97745 20.2221 6.12207 20.2221L10.7251 20.2012C10.7538 20.2008 10.7561 20.2074 10.7792 20.2227C10.782 21.9681 11.7752 23.9652 13.0202 25.1982C14.2107 26.3771 16.3458 27.4047 18.0766 27.3856L18.1075 27.3852C18.1598 27.8891 18.1068 28.447 18.1068 28.961L18.1075 32.5444C11.93 32.6458 6.35933 27.4877 5.68697 21.3872C5.64772 21.0309 5.63045 20.6701 5.56641 20.3172Z" fill="#E3CFC8"/>
<path d="M5.23915 17.2554C5.83338 17.17 5.83764 16.74 5.95202 16.2755C7.0125 11.9686 11.1639 8.23133 15.4446 7.28232C16.2656 7.10032 17.3875 6.94734 18.2168 7.00426V12.225C13.7944 12.542 10.7545 15.7972 10.7795 20.227C10.7564 20.2118 10.7541 20.2052 10.7254 20.2055L6.12233 20.2264C5.97772 20.2264 5.7181 20.18 5.59053 20.2489L5.56667 20.3215C5.59162 19.941 5.60842 18.3252 5.59408 18.301C5.50878 18.157 5.22481 18.1245 5.07471 18.1036C5.28945 17.9336 5.29079 17.4979 5.23915 17.2554Z" fill="#717DBD"/>
<path d="M18.2162 7.00006C20.2887 6.90771 22.7009 7.63782 24.4865 8.67193C30.9511 12.4158 32.9597 20.8077 28.6649 27.0428C26.3304 30.4322 22.2291 32.614 18.1072 32.5445L18.1064 28.9611C18.1064 28.4471 18.1595 27.8892 18.1072 27.3853C20.0796 27.5358 22.1994 26.6098 23.5811 25.2327C26.4629 22.361 26.5915 17.4484 23.6833 14.5443C22.2256 13.0888 20.2847 12.2205 18.2162 12.2208V7.00006Z" fill="#4B0D9B"/>
<path d="M18.2168 12.2207C20.2853 12.2204 22.2262 13.0887 23.6838 14.5442C26.592 17.4483 26.4635 22.3609 23.5817 25.2326C22.1999 26.6096 20.0802 27.5357 18.1077 27.3852L18.0769 27.3856C16.3461 27.4047 14.2109 26.3771 13.0205 25.1982C11.7755 23.9652 10.7823 21.9681 10.7795 20.2227C10.7544 15.7928 13.7943 12.5377 18.2168 12.2207Z" fill="#163166"/>
<path d="M17.9246 13.1285C21.3624 12.9861 24.5718 15.6491 24.833 19.1296C25.1201 22.9575 22.3672 26.1136 18.5411 26.3979C18.2194 26.3992 17.8968 26.4028 17.5763 26.371C14.2307 26.0391 11.7442 23.3855 11.5819 20.0753C11.4052 16.4691 14.3045 13.296 17.9246 13.1285Z" fill="#E3CFC8"/>
<path d="M18.1279 24.5792C17.6599 24.5792 17.2352 24.4622 16.8539 24.2282C16.4725 23.9942 16.1649 23.6822 15.9309 23.2922C15.7055 22.8936 15.5929 22.4516 15.5929 21.9662V17.8452C15.5929 17.3772 15.7055 16.9482 15.9309 16.5582C16.1649 16.1596 16.4725 15.8432 16.8539 15.6092C17.2439 15.3752 17.6685 15.2582 18.1279 15.2582C18.6045 15.2582 19.0335 15.3752 19.4149 15.6092C19.8049 15.8346 20.1125 16.1422 20.3379 16.5322C20.5632 16.9222 20.6759 17.3599 20.6759 17.8452V18.4432C20.6759 18.4779 20.6542 18.4952 20.6109 18.4952H19.1549C19.1202 18.4952 19.1029 18.4779 19.1029 18.4432V17.9492C19.1029 17.6199 19.0075 17.3469 18.8169 17.1302C18.6349 16.9136 18.4052 16.8052 18.1279 16.8052C17.8765 16.8052 17.6512 16.9092 17.4519 17.1172C17.2612 17.3252 17.1659 17.5679 17.1659 17.8452V21.9662C17.1659 22.2522 17.2612 22.4992 17.4519 22.7072C17.6425 22.9066 17.8679 23.0062 18.1279 23.0062C18.4052 23.0062 18.6349 22.9066 18.8169 22.7072C19.0075 22.5079 19.1029 22.2609 19.1029 21.9662V21.3292H18.1929C18.1495 21.3292 18.1279 21.3076 18.1279 21.2642V19.8082C18.1279 19.7649 18.1495 19.7432 18.1929 19.7432H20.6239C20.6585 19.7432 20.6759 19.7649 20.6759 19.8082V21.9662C20.6759 22.4516 20.5589 22.8936 20.3249 23.2922C20.0995 23.6822 19.7962 23.9942 19.4149 24.2282C19.0335 24.4622 18.6045 24.5792 18.1279 24.5792Z" fill="#121212"/>
</svg>
