<svg width="98" height="35" fill="none" xmlns="http://www.w3.org/2000/svg"><path d="M34.424 15.048h3.968v5.376a7.15 7.15 0 0 1-1.504.576 7.635 7.635 0 0 1-1.888.224c-1.696 0-2.97-.544-3.824-1.632-.843-1.099-1.264-2.427-1.264-3.984 0-1.653.48-3.019 1.44-4.096s2.261-1.616 3.904-1.616c.32 0 .773.053 1.36.16a5.446 5.446 0 0 1 1.616.544l-.656 1.488c-.47-.139-.853-.245-1.152-.32-.288-.085-.667-.128-1.136-.128-.96 0-1.739.33-2.336.992-.587.65-.88 1.637-.88 2.96 0 1.195.24 2.144.72 2.848.49.693 1.21 1.04 2.16 1.04.352 0 .656-.016.912-.048.256-.043.48-.085.672-.128v-2.656h-2.288l.176-1.6Zm7.62 3.632c0 .224.09.427.272.608.181.17.421.256.72.256.288 0 .576-.064.864-.192.299-.128.581-.32.848-.576v-1.184H43.18c-.363 0-.645.112-.848.336a1.127 1.127 0 0 0-.288.752Zm1.024 2.512c-.95 0-1.653-.23-2.112-.688-.459-.47-.688-1.077-.688-1.824 0-.8.272-1.413.816-1.84.544-.427 1.253-.64 2.128-.64h1.52c-.01-.395-.128-.699-.352-.912-.213-.224-.512-.336-.896-.336-.363 0-.757.053-1.184.16a5.046 5.046 0 0 0-1.072.352l-.56-1.728c.299-.203.752-.368 1.36-.496.619-.139 1.093-.208 1.424-.208.928 0 1.723.272 2.384.816.661.533.992 1.216.992 2.048V21h-1.072l-.512-.656c-.288.224-.63.421-1.024.592-.384.17-.768.256-1.152.256Zm10.474-.352c-.17.139-.416.25-.736.336-.31.096-.587.144-.832.144-.96 0-1.717-.24-2.272-.72-.544-.49-.816-1.184-.816-2.08v-3.664h-1.04v-1.6h1.04v-1.84l2.064-.368v2.208h1.408l.64 1.6H50.95v3.296c0 .405.096.741.288 1.008.192.256.475.384.848.384a1.845 1.845 0 0 0 .848-.208l.608 1.504Zm3.33-7.088c.34-.267.73-.47 1.167-.608.448-.139.848-.208 1.2-.208 1.056 0 1.803.31 2.24.928.448.619.672 1.376.672 2.272V21h-2.08v-4.768c0-.49-.117-.864-.352-1.12-.235-.267-.581-.4-1.04-.4-.299 0-.608.08-.928.24-.32.15-.613.325-.88.528V21h-2.064V9.88l2.064-.176v4.048Zm11.198 7.44c-1.343 0-2.405-.368-3.183-1.104-.769-.736-1.153-1.723-1.153-2.96 0-1.237.347-2.23 1.04-2.976.704-.747 1.66-1.12 2.864-1.12 1.216 0 2.107.405 2.672 1.216.576.8.864 1.75.864 2.848v.64h-5.232c.097.512.331.923.705 1.232.373.299.863.448 1.471.448.353 0 .667-.043.945-.128.287-.096.618-.23.992-.4l.607 1.504c-.362.277-.805.48-1.328.608-.511.128-.933.192-1.264.192Zm1.137-4.848c-.107-.523-.3-.907-.576-1.152-.278-.256-.624-.384-1.04-.384-.427 0-.784.133-1.072.4-.288.256-.475.635-.56 1.136h3.248Zm7.822-3.104.416 1.664c-.352 0-.762.101-1.232.304a5.34 5.34 0 0 0-1.36.896V21h-2.08v-7.76h1.088l.688 1.136c.32-.277.71-.533 1.168-.768.459-.245.896-.368 1.312-.368Z" fill="#fff"/><path d="m3.895 12.829-.013-.007c-.332-.175-.247-.308-.161-.625.957-3.517 3.626-6.296 7.173-7.285 5.374-1.498 10.865 1.732 12.347 7.083.64 2.31.397 4.966-.644 7.117-2.545 5.261-8.938 7.282-14.03 4.383-3.265-1.858-5.098-5.401-5.07-9.108.002-.287-.05-.79.276-.928.112.016.323.04.386.147.011.018-.001 1.22-.02 1.503.048.262.06.53.09.795.5 4.537 4.642 8.372 9.235 8.297 3.065.051 6.115-1.571 7.851-4.091 3.194-4.637 1.7-10.877-3.107-13.66-1.328-.77-3.121-1.313-4.662-1.244-.617-.042-1.451.072-2.062.207-3.183.706-6.27 3.485-7.059 6.687-.085.345-.088.665-.53.729Z" fill="#163166"/><path d="m4.14 15.108.017-.054c.095-.052.288-.017.395-.017l3.423-.016c.021 0 .023.005.04.016.002 1.298.741 2.783 1.667 3.7.885.877 2.473 1.641 3.76 1.627h.023c.039.374-.001.789-.001 1.171V24.2c-4.593.075-8.735-3.76-9.235-8.297-.03-.264-.042-.533-.09-.795Z" fill="#E3CFC8"/><path d="M3.896 12.83c.442-.063.445-.382.53-.728C5.214 8.9 8.3 6.121 11.484 5.415c.61-.135 1.445-.25 2.062-.207V9.09c-3.289.236-5.55 2.656-5.53 5.95-.018-.01-.02-.016-.04-.015l-3.424.015c-.107 0-.3-.034-.395.017l-.018.054c.019-.283.031-1.485.02-1.503-.063-.107-.274-.13-.386-.147.16-.126.161-.45.123-.63Z" fill="#717DBD"/><path d="M13.546 5.205c1.54-.069 3.334.474 4.662 1.243 4.807 2.784 6.3 9.024 3.107 13.66-1.736 2.52-4.786 4.143-7.85 4.092l-.001-2.665c0-.382.04-.797 0-1.172 1.467.112 3.043-.576 4.07-1.6 2.144-2.136 2.24-5.789.077-7.948-1.084-1.082-2.527-1.728-4.066-1.728V5.205Z" fill="#4B0D9B"/><path d="M13.546 9.088c1.538 0 2.981.645 4.065 1.728 2.163 2.159 2.067 5.812-.076 7.947-1.027 1.024-2.603 1.713-4.07 1.601h-.023c-1.287.015-2.875-.75-3.76-1.626-.926-.917-1.664-2.402-1.666-3.7-.019-3.294 2.242-5.714 5.53-5.95Z" fill="#163166"/><path d="M13.329 9.762c2.556-.106 4.942 1.874 5.136 4.462.214 2.847-1.833 5.194-4.678 5.405-.24 0-.48.003-.717-.02a4.905 4.905 0 0 1-4.458-4.682c-.131-2.681 2.025-5.04 4.716-5.165Z" fill="#E3CFC8"/><path d="M13.481 18.09c-.324 0-.618-.081-.882-.243a1.887 1.887 0 0 1-.639-.648 1.833 1.833 0 0 1-.234-.918v-2.853c0-.324.078-.621.234-.891.162-.276.375-.495.64-.657.27-.162.563-.243.881-.243.33 0 .627.081.891.243.27.156.483.369.64.639.155.27.233.573.233.909v.414c0 .024-.015.036-.045.036h-1.008c-.024 0-.036-.012-.036-.036V13.5a.827.827 0 0 0-.198-.567.597.597 0 0 0-.477-.225.634.634 0 0 0-.468.216.722.722 0 0 0-.198.504v2.853c0 .198.066.369.198.513a.627.627 0 0 0 .468.207.618.618 0 0 0 .477-.207.713.713 0 0 0 .198-.513v-.441h-.63c-.03 0-.045-.015-.045-.045v-1.008c0-.03.015-.045.045-.045h1.683c.024 0 .036.015.036.045v1.494c0 .336-.08.642-.243.918-.156.27-.366.486-.63.648a1.67 1.67 0 0 1-.89.243Z" fill="#121212"/></svg>