<svg width="79" height="29" viewBox="0 0 79 29" fill="none" xmlns="http://www.w3.org/2000/svg">
<path d="M35.424 15.048H39.392V20.424C38.976 20.648 38.4747 20.84 37.888 21C37.3013 21.1493 36.672 21.224 36 21.224C34.304 21.224 33.0293 20.68 32.176 19.592C31.3333 18.4933 30.912 17.1653 30.912 15.608C30.912 13.9547 31.392 12.5893 32.352 11.512C33.312 10.4347 34.6133 9.896 36.256 9.896C36.576 9.896 37.0293 9.94933 37.616 10.056C38.2133 10.1627 38.752 10.344 39.232 10.6L38.576 12.088C38.1067 11.9493 37.7227 11.8427 37.424 11.768C37.136 11.6827 36.7573 11.64 36.288 11.64C35.328 11.64 34.5493 11.9707 33.952 12.632C33.3653 13.2827 33.072 14.2693 33.072 15.592C33.072 16.7867 33.312 17.736 33.792 18.44C34.2827 19.1333 35.0027 19.48 35.952 19.48C36.304 19.48 36.608 19.464 36.864 19.432C37.12 19.3893 37.344 19.3467 37.536 19.304V16.648H35.248L35.424 15.048ZM43.044 18.68C43.044 18.904 43.1347 19.1067 43.316 19.288C43.4973 19.4587 43.7373 19.544 44.036 19.544C44.324 19.544 44.612 19.48 44.9 19.352C45.1987 19.224 45.4813 19.032 45.748 18.776V17.592H44.18C43.8173 17.592 43.5347 17.704 43.332 17.928C43.14 18.152 43.044 18.4027 43.044 18.68ZM44.068 21.192C43.1187 21.192 42.4147 20.9627 41.956 20.504C41.4973 20.0347 41.268 19.4267 41.268 18.68C41.268 17.88 41.54 17.2667 42.084 16.84C42.628 16.4133 43.3373 16.2 44.212 16.2H45.732C45.7213 15.8053 45.604 15.5013 45.38 15.288C45.1667 15.064 44.868 14.952 44.484 14.952C44.1213 14.952 43.7267 15.0053 43.3 15.112C42.8733 15.208 42.516 15.3253 42.228 15.464L41.668 13.736C41.9667 13.5333 42.42 13.368 43.028 13.24C43.6467 13.1013 44.1213 13.032 44.452 13.032C45.38 13.032 46.1747 13.304 46.836 13.848C47.4973 14.3813 47.828 15.064 47.828 15.896V21H46.756L46.244 20.344C45.956 20.568 45.6147 20.7653 45.22 20.936C44.836 21.1067 44.452 21.192 44.068 21.192ZM54.542 20.84C54.3713 20.9787 54.126 21.0907 53.806 21.176C53.4967 21.272 53.2193 21.32 52.974 21.32C52.014 21.32 51.2567 21.08 50.702 20.6C50.158 20.1093 49.886 19.416 49.886 18.52V14.856H48.846V13.256H49.886V11.416L51.95 11.048V13.256H53.358L53.998 14.856H51.95V18.152C51.95 18.5573 52.046 18.8933 52.238 19.16C52.43 19.416 52.7127 19.544 53.086 19.544C53.2247 19.544 53.3633 19.528 53.502 19.496C53.6407 19.464 53.7847 19.4107 53.934 19.336L54.542 20.84ZM57.8711 13.752C58.2125 13.4853 58.6018 13.2827 59.0391 13.144C59.4871 13.0053 59.8871 12.936 60.2391 12.936C61.2951 12.936 62.0418 13.2453 62.4791 13.864C62.9271 14.4827 63.1511 15.24 63.1511 16.136V21H61.0711V16.232C61.0711 15.7413 60.9538 15.368 60.7191 15.112C60.4845 14.8453 60.1378 14.712 59.6791 14.712C59.3805 14.712 59.0711 14.792 58.7511 14.952C58.4311 15.1013 58.1378 15.2773 57.8711 15.48V21H55.8071V9.88L57.8711 9.704V13.752ZM69.0705 21.192C67.7265 21.192 66.6652 20.824 65.8865 20.088C65.1185 19.352 64.7345 18.3653 64.7345 17.128C64.7345 15.8907 65.0812 14.8987 65.7745 14.152C66.4785 13.4053 67.4332 13.032 68.6385 13.032C69.8545 13.032 70.7452 13.4373 71.3105 14.248C71.8865 15.048 72.1745 15.9973 72.1745 17.096V17.736H66.9425C67.0385 18.248 67.2732 18.6587 67.6465 18.968C68.0198 19.2667 68.5105 19.416 69.1185 19.416C69.4705 19.416 69.7852 19.3733 70.0625 19.288C70.3505 19.192 70.6812 19.0587 71.0545 18.888L71.6625 20.392C71.2998 20.6693 70.8572 20.872 70.3345 21C69.8225 21.128 69.4012 21.192 69.0705 21.192ZM70.2065 16.344C70.0998 15.8213 69.9078 15.4373 69.6305 15.192C69.3532 14.936 69.0065 14.808 68.5905 14.808C68.1638 14.808 67.8065 14.9413 67.5185 15.208C67.2305 15.464 67.0438 15.8427 66.9585 16.344H70.2065ZM78.0293 13.24L78.4453 14.904C78.0933 14.904 77.6826 15.0053 77.2133 15.208C76.7546 15.4107 76.3013 15.7093 75.8533 16.104V21H73.7733V13.24H74.8613L75.5493 14.376C75.8693 14.0987 76.2586 13.8427 76.7173 13.608C77.1759 13.3627 77.6133 13.24 78.0293 13.24Z" fill="white"/>
<path d="M12 5C6.48 5 2 9.48 2 15C2 20.52 6.48 25 12 25C17.52 25 22 20.52 22 15C22 9.48 17.52 5 12 5ZM8 20.5C7.33696 20.5 6.70107 20.2366 6.23223 19.7678C5.76339 19.2989 5.5 18.663 5.5 18C5.5 17.337 5.76339 16.7011 6.23223 16.2322C6.70107 15.7634 7.33696 15.5 8 15.5C8.66304 15.5 9.29893 15.7634 9.76777 16.2322C10.2366 16.7011 10.5 17.337 10.5 18C10.5 18.663 10.2366 19.2989 9.76777 19.7678C9.29893 20.2366 8.66304 20.5 8 20.5ZM9.5 11C9.5 10.337 9.76339 9.70107 10.2322 9.23223C10.7011 8.76339 11.337 8.5 12 8.5C12.663 8.5 13.2989 8.76339 13.7678 9.23223C14.2366 9.70107 14.5 10.337 14.5 11C14.5 11.663 14.2366 12.2989 13.7678 12.7678C13.2989 13.2366 12.663 13.5 12 13.5C11.337 13.5 10.7011 13.2366 10.2322 12.7678C9.76339 12.2989 9.5 11.663 9.5 11ZM16 20.5C15.337 20.5 14.7011 20.2366 14.2322 19.7678C13.7634 19.2989 13.5 18.663 13.5 18C13.5 17.337 13.7634 16.7011 14.2322 16.2322C14.7011 15.7634 15.337 15.5 16 15.5C16.663 15.5 17.2989 15.7634 17.7678 16.2322C18.2366 16.7011 18.5 17.337 18.5 18C18.5 18.663 18.2366 19.2989 17.7678 19.7678C17.2989 20.2366 16.663 20.5 16 20.5Z" fill="#FDFF8B"/>
</svg>
